<svg width="20" height="20" viewBox="0 0 20 20" fill="none" xmlns="http://www.w3.org/2000/svg">
<path d="M1.66666 7.50008C1.66666 5.92841 1.66666 5.14341 2.15499 4.65508C2.64332 4.16675 3.42832 4.16675 4.99999 4.16675H15C16.5717 4.16675 17.3567 4.16675 17.845 4.65508C18.3333 5.14341 18.3333 5.92841 18.3333 7.50008C18.3333 7.89258 18.3333 8.08925 18.2117 8.21175C18.0892 8.33342 17.8917 8.33342 17.5 8.33342H2.49999C2.10749 8.33342 1.91082 8.33342 1.78832 8.21175C1.66666 8.08925 1.66666 7.89175 1.66666 7.50008ZM1.66666 15.0001C1.66666 16.5717 1.66666 17.3567 2.15499 17.8451C2.64332 18.3334 3.42832 18.3334 4.99999 18.3334H15C16.5717 18.3334 17.3567 18.3334 17.845 17.8451C18.3333 17.3567 18.3333 16.5717 18.3333 15.0001V10.8334C18.3333 10.4409 18.3333 10.2442 18.2117 10.1217C18.0892 10.0001 17.8917 10.0001 17.5 10.0001H2.49999C2.10749 10.0001 1.91082 10.0001 1.78832 10.1217C1.66666 10.2442 1.66666 10.4417 1.66666 10.8334V15.0001Z" fill="#424241"/>
<path d="M5.83331 2.5V5V2.5ZM14.1666 2.5V5V2.5Z" fill="#424241"/>
<path d="M5.83331 2.5V5M14.1666 2.5V5" stroke="#424241" stroke-width="2" stroke-linecap="round"/>
</svg>
