<svg width="34" height="32" viewBox="0 0 34 32" fill="none" xmlns="http://www.w3.org/2000/svg">
<path d="M7.87889 17.6373C8.21291 17.5254 8.57888 17.5398 8.90223 17.6776C9.22557 17.8154 9.48197 18.0662 9.61916 18.379C9.75636 18.6918 9.76404 19.043 9.64064 19.361C9.51723 19.679 9.27203 19.94 8.95499 20.0907L8.80484 20.152C8.37027 20.2994 7.98069 20.5479 7.67111 20.8754C7.36152 21.2029 7.14164 21.5991 7.03121 22.0282C6.92079 22.4574 6.92328 22.9061 7.03847 23.3342C7.15367 23.7622 7.37794 24.156 7.69115 24.4803C8.00435 24.8046 8.39668 25.0492 8.83285 25.1921C9.26903 25.335 9.7354 25.3718 10.19 25.299C10.6447 25.2263 11.0734 25.0463 11.4375 24.7754C11.8017 24.5044 12.09 24.1509 12.2764 23.7467L12.3557 23.556C12.4126 23.3863 12.5045 23.2292 12.6258 23.0942C12.7471 22.9591 12.8955 22.8487 13.062 22.7696C13.2286 22.6904 13.41 22.6441 13.5956 22.6334C13.7812 22.6227 13.9671 22.6478 14.1424 22.7072C14.3176 22.7666 14.4787 22.8591 14.6161 22.9792C14.7534 23.0993 14.8643 23.2447 14.942 23.4066C15.0198 23.5685 15.0629 23.7438 15.0688 23.922C15.0747 24.1001 15.0433 24.2777 14.9764 24.444C14.6635 25.2939 14.1311 26.0538 13.4289 26.653C12.7268 27.2521 11.8778 27.6709 10.9612 27.8701C10.0447 28.0694 9.0904 28.0428 8.18748 27.7926C7.28457 27.5425 6.46246 27.077 5.7979 26.4397C5.13334 25.8024 4.64799 25.014 4.38716 24.1481C4.12633 23.2821 4.09852 22.367 4.30632 21.488C4.51413 20.609 4.95078 19.7948 5.57552 19.1214C6.20025 18.4481 6.9927 17.9375 7.87889 17.6373ZM25.4886 17.6373C26.3748 17.9375 27.1672 18.4481 27.792 19.1214C28.4167 19.7948 28.8534 20.609 29.0612 21.488C29.269 22.367 29.2412 23.2821 28.9803 24.1481C28.7195 25.014 28.2341 25.8024 27.5696 26.4397C26.905 27.077 26.0829 27.5425 25.18 27.7926C24.2771 28.0428 23.3228 28.0694 22.4062 27.8701C21.4897 27.6709 20.6407 27.2521 19.9386 26.653C19.2364 26.0538 18.704 25.2939 18.391 24.444C18.2743 24.1237 18.2893 23.7727 18.433 23.4626C18.5767 23.1525 18.8383 22.9066 19.1644 22.775C19.4906 22.6435 19.8568 22.6361 20.1884 22.7545C20.52 22.8728 20.7921 23.108 20.9492 23.412L21.0132 23.556C21.1668 23.9728 21.426 24.3464 21.7675 24.6433C22.109 24.9402 22.5221 25.151 22.9696 25.2569C23.4171 25.3628 23.885 25.3604 24.3313 25.25C24.7776 25.1395 25.1883 24.9244 25.5265 24.624C25.8647 24.3237 26.1197 23.9474 26.2687 23.5291C26.4177 23.1108 26.456 22.6636 26.3802 22.2276C26.3043 21.7916 26.1167 21.3804 25.8341 21.0312C25.5516 20.6819 25.183 20.4055 24.7615 20.2267L24.5627 20.152C24.3905 20.0937 24.232 20.0034 24.0962 19.8864C23.9604 19.7693 23.8499 19.6278 23.7712 19.4698C23.6121 19.1507 23.5918 18.7841 23.7146 18.4507C23.8373 18.1172 24.0932 17.8442 24.4259 17.6916C24.7586 17.5391 25.1409 17.5196 25.4886 17.6373ZM11.1378 8.85333L11.281 8.94667L14.9764 11.704C15.4325 12.0443 15.9878 12.2398 16.5651 12.2635C17.1424 12.2871 17.7131 12.1377 18.1978 11.836L18.391 11.704L22.0865 8.948C22.3422 8.75706 22.6593 8.65775 22.9832 8.66724C23.3071 8.67673 23.6174 8.79441 23.8604 8.99997C24.1034 9.20552 24.2639 9.48603 24.3142 9.79302C24.3645 10.1 24.3014 10.4142 24.1358 10.6813L24.0385 10.8187L21.1633 14.3627C20.8085 14.8001 20.6046 15.3326 20.5799 15.8862C20.5553 16.4399 20.7111 16.9872 21.0257 17.452L21.1633 17.6373L24.0371 21.1813C24.2362 21.4265 24.3398 21.7307 24.3299 22.0413C24.32 22.3519 24.1973 22.6495 23.9829 22.8825C23.7686 23.1156 23.4761 23.2695 23.156 23.3178C22.8359 23.366 22.5082 23.3055 22.2297 23.1467L22.0865 23.0533L18.391 20.296C17.935 19.9557 17.3797 19.7602 16.8024 19.7365C16.225 19.7129 15.6544 19.8623 15.1697 20.164L14.9764 20.296L11.281 23.052C11.0253 23.2429 10.7082 23.3423 10.3843 23.3328C10.0604 23.3233 9.75012 23.2056 9.50709 23C9.26406 22.7945 9.10354 22.514 9.05325 22.207C9.00296 21.9 9.06607 21.5858 9.23166 21.3187L9.32899 21.1813L12.2042 17.6373C12.559 17.1999 12.7629 16.6674 12.7875 16.1138C12.8122 15.5601 12.6564 15.0128 12.3418 14.548L12.2042 14.3627L9.33038 10.8187C9.13991 10.5845 9.03643 10.296 9.03635 9.99901C9.03626 9.70202 9.13958 9.41349 9.32991 9.17921C9.52024 8.94492 9.78669 8.77828 10.087 8.70572C10.3873 8.63316 10.7043 8.65883 10.9876 8.77867L11.1378 8.85333ZM23.6353 4C24.9477 3.99942 26.218 4.44397 27.2215 5.255C28.2251 6.06603 28.8972 7.19129 29.1191 8.43176C29.3409 9.67223 29.0982 10.948 28.4338 12.0334C27.7694 13.1187 26.7262 13.9438 25.4886 14.3627C25.1546 14.4746 24.7886 14.4602 24.4653 14.3224C24.1419 14.1846 23.8855 13.9338 23.7483 13.621C23.6111 13.3082 23.6034 12.957 23.7269 12.639C23.8503 12.321 24.0955 12.06 24.4125 11.9093L24.5627 11.848C24.9972 11.7006 25.3868 11.4521 25.6964 11.1246C26.006 10.7971 26.2258 10.4009 26.3363 9.97178C26.4467 9.54261 26.4442 9.09386 26.329 8.66584C26.2138 8.23783 25.9895 7.84397 25.6763 7.51966C25.3631 7.19536 24.9708 6.95076 24.5346 6.80786C24.0985 6.66496 23.6321 6.62823 23.1774 6.70098C22.7228 6.77372 22.2941 6.95366 21.9299 7.22462C21.5658 7.49558 21.2775 7.84908 21.091 8.25333L21.0132 8.444C20.8904 8.77747 20.6345 9.0505 20.3018 9.20303C19.9691 9.35556 19.5869 9.37509 19.2391 9.25733C18.8914 9.13958 18.6067 8.89418 18.4477 8.57511C18.2886 8.25605 18.2683 7.88947 18.391 7.556C18.7746 6.51603 19.4848 5.61565 20.424 4.97882C21.3631 4.34198 22.4851 4.00002 23.6353 4ZM9.73218 4C10.8824 4.00002 12.0043 4.34198 12.9435 4.97882C13.8827 5.61565 14.5929 6.51603 14.9764 7.556C15.0932 7.87633 15.0782 8.2273 14.9345 8.5374C14.7908 8.84749 14.5292 9.09338 14.2031 9.22495C13.8769 9.35653 13.5107 9.36389 13.1791 9.24555C12.8475 9.1272 12.5754 8.89205 12.4183 8.588L12.3543 8.444C12.2007 8.02725 11.9414 7.65363 11.6 7.35674C11.2585 7.05984 10.8454 6.84897 10.3979 6.74307C9.95039 6.63717 9.48246 6.63956 9.03616 6.75003C8.58986 6.8605 8.17917 7.07558 7.841 7.37595C7.50283 7.67632 7.24778 8.05257 7.09878 8.47087C6.94977 8.88917 6.91147 9.33643 6.98732 9.77244C7.06318 10.2085 7.25081 10.6196 7.53335 10.9688C7.81589 11.3181 8.18449 11.5945 8.60602 11.7733L8.80484 11.8493C9.14251 11.9742 9.41611 12.2204 9.5675 12.5357C9.71889 12.8509 9.73614 13.2103 9.61557 13.5376C9.49501 13.8648 9.24614 14.1341 8.92185 14.2882C8.59756 14.4422 8.2234 14.469 7.87889 14.3627C6.64296 13.9424 5.60157 13.117 4.93854 12.032C4.27551 10.9471 4.03347 9.67233 4.25514 8.43287C4.47681 7.1934 5.14793 6.06888 6.15006 5.25781C7.15218 4.44674 8.42087 4.00125 9.73218 4Z" fill="white"/>
</svg>
