<svg width="32" height="32" viewBox="0 0 32 32" fill="none" xmlns="http://www.w3.org/2000/svg">
<path d="M6.65335 17.1494C6.89803 18.9129 7.63508 20.5717 8.77987 21.9353C9.92466 23.2989 11.4308 24.3121 13.1253 24.8584C14.8199 25.4047 16.6341 25.4621 18.3598 25.024C20.0855 24.5858 21.6527 23.6699 22.8814 22.3814C22.7647 22.112 22.6944 21.8249 22.6734 21.5321L22.6667 21.3334L22.6734 21.1334C22.7132 20.6031 22.9106 20.0969 23.2403 19.6797C23.5699 19.2625 24.0168 18.9534 24.5235 18.7921C25.0301 18.6307 25.5735 18.6246 26.0837 18.7743C26.5939 18.9241 27.0476 19.223 27.3867 19.6326C27.7258 20.0422 27.9346 20.5438 27.9865 21.073C28.0383 21.6022 27.9308 22.1348 27.6777 22.6025C27.4246 23.0701 27.0374 23.4513 26.566 23.6973C26.0946 23.9432 25.5604 24.0426 25.032 23.9827C23.4837 25.6963 21.4785 26.9323 19.252 27.5456C17.0254 28.1589 14.6701 28.1239 12.4628 27.4448C10.2554 26.7657 8.28777 25.4706 6.79104 23.7118C5.2943 21.9531 4.33066 19.8036 4.01335 17.5161C3.97655 17.1717 4.07519 16.8265 4.2884 16.5535C4.50161 16.2806 4.81266 16.1013 5.15571 16.0537C5.49876 16.0061 5.84689 16.0938 6.12641 16.2983C6.40594 16.5028 6.59492 16.808 6.65335 17.1494Z" fill="white"/>
<path d="M20.5753 15.4306C20.2995 14.8446 19.8986 14.3186 19.3977 13.8855L18.9844 13.5274C18.9703 13.5156 18.9534 13.5072 18.9352 13.503C18.9169 13.4988 18.8978 13.4988 18.8796 13.5032C18.8613 13.5076 18.8445 13.5161 18.8306 13.5281C18.8167 13.54 18.8061 13.555 18.7997 13.5717L18.615 14.072C18.5 14.3858 18.2883 14.7064 17.9886 15.0216C17.9687 15.0417 17.946 15.047 17.9304 15.0484C17.9148 15.0497 17.8906 15.047 17.8693 15.0283C17.8494 15.0122 17.8395 14.988 17.8409 14.9639C17.8935 14.1565 17.6378 13.2458 17.0781 12.2546C16.6151 11.4311 15.9716 10.7886 15.1676 10.3407L14.581 10.0147C14.5043 9.97182 14.4062 10.0281 14.4105 10.1126L14.4418 10.7564C14.4631 11.1964 14.4091 11.5853 14.2812 11.9086C14.125 12.3042 13.9006 12.6717 13.6136 13.0017C13.414 13.231 13.1876 13.4384 12.9389 13.62C12.3399 14.0548 11.8529 14.6119 11.5142 15.2496C11.1764 15.8928 11.0004 16.6011 11 17.3191C11 17.9522 11.1321 18.5651 11.3935 19.1432C11.6458 19.6997 12.01 20.2049 12.4659 20.6306C12.9261 21.0598 13.4602 21.3978 14.0554 21.6325C14.6719 21.8766 15.3253 22 16 22C16.6747 22 17.3281 21.8766 17.9446 21.6338C18.5383 21.4005 19.0782 21.0602 19.5341 20.6319C19.9943 20.2027 20.3551 19.7011 20.6065 19.1445C20.8675 18.568 21.0014 17.9474 21 17.3204C21 16.6659 20.8579 16.0302 20.5753 15.4306Z" fill="white"/>
<path d="M17.5227 4.12005C20.1619 4.46082 22.6158 5.65978 24.5066 7.53228C26.3974 9.40478 27.6202 11.847 27.9867 14.4827C28.0245 14.8275 27.9264 15.1735 27.7134 15.4472C27.5003 15.7209 27.1889 15.9008 26.8454 15.9486C26.5018 15.9965 26.1531 15.9087 25.8733 15.7037C25.5935 15.4987 25.4046 15.1927 25.3467 14.8507C25.0607 12.7939 24.1063 10.8881 22.6306 9.42707C21.1548 7.96603 19.2396 7.03077 17.18 6.76538C15.7066 6.57358 14.2088 6.73147 12.8078 7.22626C11.4069 7.72105 10.1421 8.53883 9.116 9.61338C9.26957 9.96935 9.34368 10.3545 9.33316 10.7421C9.32265 11.1296 9.22775 11.5102 9.05509 11.8573C8.88244 12.2044 8.63617 12.5097 8.33345 12.7519C8.03073 12.9941 7.67884 13.1674 7.3023 13.2597C6.92576 13.352 6.53363 13.3611 6.15322 13.2863C5.77281 13.2116 5.41327 13.0548 5.09967 12.8268C4.78607 12.5989 4.52593 12.3053 4.33739 11.9666C4.14885 11.6278 4.03645 11.252 4.008 10.8654L4 10.6667L4.00667 10.4667C4.03348 10.1094 4.13203 9.7612 4.29641 9.44283C4.4608 9.12447 4.68766 8.8425 4.96344 8.61376C5.23922 8.38502 5.55827 8.2142 5.90154 8.11151C6.2448 8.00881 6.60524 7.97635 6.96133 8.01605C8.2756 6.56118 9.92305 5.44671 11.7625 4.76815C13.6019 4.0896 15.5784 3.86721 17.5227 4.12005Z" fill="white"/>
</svg>
